<svg width="32" height="32" viewBox="0 0 32 32" fill="none" xmlns="http://www.w3.org/2000/svg">
<path d="M24 13.3334H22.32C21.8212 11.4014 20.7904 9.64803 19.3449 8.27257C17.8993 6.89711 16.097 5.9547 14.1426 5.55241C12.1882 5.15012 10.1601 5.30409 8.28888 5.99683C6.41762 6.68957 4.77819 7.89329 3.55687 9.47122C2.33556 11.0491 1.58132 12.938 1.37988 14.9232C1.17844 16.9083 1.53786 18.9102 2.41731 20.7013C3.29675 22.4924 4.66096 24.0009 6.35491 25.0555C8.04887 26.11 10.0046 26.6682 12 26.6667H24C25.7681 26.6667 27.4638 25.9643 28.7141 24.7141C29.9643 23.4638 30.6667 21.7682 30.6667 20C30.6667 18.2319 29.9643 16.5362 28.7141 15.286C27.4638 14.0358 25.7681 13.3334 24 13.3334Z" stroke="currentColor" stroke-width="2" stroke-linecap="round" stroke-linejoin="round"/>
</svg>
