<svg width="20" height="20" viewBox="0 0 20 20" fill="none" xmlns="http://www.w3.org/2000/svg">
<path d="M4.08034 3.33325H15.9197C16.0605 3.33334 16.1984 3.37283 16.3175 3.44716C16.4367 3.5215 16.5322 3.62767 16.5931 3.75345C16.654 3.87923 16.6779 4.0195 16.6619 4.15811C16.6459 4.29672 16.5907 4.42805 16.5027 4.53696L11.6593 10.5377C11.553 10.669 11.495 10.8323 11.4949 11.0007V14.8147C11.4949 14.9297 11.4679 15.0431 11.416 15.146C11.3641 15.2489 11.2888 15.3383 11.1959 15.4073L9.70107 16.5184C9.59002 16.601 9.45798 16.6512 9.31973 16.6636C9.18148 16.6759 9.04249 16.6499 8.91834 16.5884C8.79419 16.5269 8.68977 16.4323 8.6168 16.3153C8.54382 16.1983 8.50517 16.0634 8.50517 15.9258V10.9999C8.50487 10.8318 8.44688 10.6688 8.34073 10.5377L3.49734 4.53696C3.40936 4.42805 3.3542 4.29672 3.33821 4.15811C3.32222 4.0195 3.34606 3.87923 3.40698 3.75345C3.4679 3.62767 3.56342 3.5215 3.68255 3.44716C3.80168 3.37283 3.93957 3.33334 4.08034 3.33325Z" fill="currentColor"/>
</svg>
