<svg width="26" height="29" viewBox="0 0 26 29" fill="none" xmlns="http://www.w3.org/2000/svg">
<path d="M25 19.6639V8.99727C24.9995 8.52963 24.8761 8.07035 24.6421 7.66548C24.408 7.26062 24.0717 6.92442 23.6667 6.6906L14.3333 1.35727C13.9279 1.12322 13.4681 1 13 1C12.5319 1 12.0721 1.12322 11.6667 1.35727L2.33333 6.6906C1.92835 6.92442 1.59197 7.26062 1.35795 7.66548C1.12392 8.07035 1.00048 8.52963 1 8.99727V19.6639C1.00048 20.1316 1.12392 20.5909 1.35795 20.9957C1.59197 21.4006 1.92835 21.7368 2.33333 21.9706L11.6667 27.3039C12.0721 27.538 12.5319 27.6612 13 27.6612C13.4681 27.6612 13.9279 27.538 14.3333 27.3039L23.6667 21.9706C24.0717 21.7368 24.408 21.4006 24.6421 20.9957C24.8761 20.5909 24.9995 20.1316 25 19.6639Z" stroke="currentColor" stroke-width="2" stroke-linecap="round" stroke-linejoin="round"/>
<path d="M19 16.9973V11.6639C18.9998 11.4301 18.938 11.2005 18.821 10.998C18.704 10.7956 18.5358 10.6275 18.3333 10.5106L13.6667 7.84393C13.464 7.72691 13.234 7.6653 13 7.6653C12.766 7.6653 12.536 7.72691 12.3333 7.84393L7.66667 10.5106C7.46417 10.6275 7.29599 10.7956 7.17897 10.998C7.06196 11.2005 7.00024 11.4301 7 11.6639V16.9973C7.00024 17.2311 7.06196 17.4607 7.17897 17.6632C7.29599 17.8656 7.46417 18.0337 7.66667 18.1506L12.3333 20.8173C12.536 20.9343 12.766 20.9959 13 20.9959C13.234 20.9959 13.464 20.9343 13.6667 20.8173L18.3333 18.1506C18.5358 18.0337 18.704 17.8656 18.821 17.6632C18.938 17.4607 18.9998 17.2311 19 16.9973Z" stroke="currentColor" stroke-width="2" stroke-linecap="round" stroke-linejoin="round"/>
</svg>
